<svg height="2606" width="720" xmlns="http://www.w3.org/2000/svg">
<rect height="2606" fill="#555" width="720"></rect>
<text fill="#7f7" font-family="Courier New" font-size="12" xml:space="preserve">
<tspan x="10" y="26">22 megabytes installed</tspan>
<tspan x="10" y="42"></tspan>
<tspan x="10" y="58">node_modules</tspan>
<tspan x="10" y="74">└─┬ webpack-validator@3.0.0 </tspan>
<tspan x="10" y="90">  ├── basename@0.1.2 </tspan>
<tspan x="10" y="106">  ├─┬ chalk@1.1.3 </tspan>
<tspan x="10" y="122">  │ ├── ansi-styles@2.2.1 </tspan>
<tspan x="10" y="138">  │ ├── escape-string-regexp@1.0.5 </tspan>
<tspan x="10" y="154">  │ ├─┬ has-ansi@2.0.0 </tspan>
<tspan x="10" y="170">  │ │ └── ansi-regex@2.1.1 </tspan>
<tspan x="10" y="186">  │ ├── strip-ansi@3.0.1 </tspan>
<tspan x="10" y="202">  │ └── supports-color@2.0.0 </tspan>
<tspan x="10" y="218">  ├─┬ commander@2.9.0 </tspan>
<tspan x="10" y="234">  │ └── graceful-readlink@1.0.1 </tspan>
<tspan x="10" y="250">  ├─┬ common-tags@0.1.1 </tspan>
<tspan x="10" y="266">  │ └─┬ babel-runtime@6.23.0 </tspan>
<tspan x="10" y="282">  │   ├── core-js@2.4.1 </tspan>
<tspan x="10" y="298">  │   └── regenerator-runtime@0.10.3 </tspan>
<tspan x="10" y="314">  ├─┬ cross-env@3.2.4 </tspan>
<tspan x="10" y="330">  │ ├─┬ cross-spawn@5.1.0 </tspan>
<tspan x="10" y="346">  │ │ ├─┬ lru-cache@4.0.2 </tspan>
<tspan x="10" y="362">  │ │ │ ├── pseudomap@1.0.2 </tspan>
<tspan x="10" y="378">  │ │ │ └── yallist@2.1.2 </tspan>
<tspan x="10" y="394">  │ │ ├─┬ shebang-command@1.2.0 </tspan>
<tspan x="10" y="410">  │ │ │ └── shebang-regex@1.0.0 </tspan>
<tspan x="10" y="426">  │ │ └─┬ which@1.2.14 </tspan>
<tspan x="10" y="442">  │ │   └── isexe@2.0.0 </tspan>
<tspan x="10" y="458">  │ └── is-windows@1.0.0 </tspan>
<tspan x="10" y="474">  ├─┬ find-node-modules@1.0.4 </tspan>
<tspan x="10" y="490">  │ ├─┬ findup-sync@0.4.2 </tspan>
<tspan x="10" y="506">  │ │ ├─┬ detect-file@0.1.0 </tspan>
<tspan x="10" y="522">  │ │ │ └── fs-exists-sync@0.1.0 </tspan>
<tspan x="10" y="538">  │ │ ├─┬ is-glob@2.0.1 </tspan>
<tspan x="10" y="554">  │ │ │ └── is-extglob@1.0.0 </tspan>
<tspan x="10" y="570">  │ │ ├─┬ micromatch@2.3.11 </tspan>
<tspan x="10" y="586">  │ │ │ ├─┬ arr-diff@2.0.0 </tspan>
<tspan x="10" y="602">  │ │ │ │ └── arr-flatten@1.0.3 </tspan>
<tspan x="10" y="618">  │ │ │ ├── array-unique@0.2.1 </tspan>
<tspan x="10" y="634">  │ │ │ ├─┬ braces@1.8.5 </tspan>
<tspan x="10" y="650">  │ │ │ │ ├─┬ expand-range@1.8.2 </tspan>
<tspan x="10" y="666">  │ │ │ │ │ └─┬ fill-range@2.2.3 </tspan>
<tspan x="10" y="682">  │ │ │ │ │   ├── is-number@2.1.0 </tspan>
<tspan x="10" y="698">  │ │ │ │ │   ├── isobject@2.1.0 </tspan>
<tspan x="10" y="714">  │ │ │ │ │   ├── randomatic@1.1.6 </tspan>
<tspan x="10" y="730">  │ │ │ │ │   └── repeat-string@1.6.1 </tspan>
<tspan x="10" y="746">  │ │ │ │ ├── preserve@0.2.0 </tspan>
<tspan x="10" y="762">  │ │ │ │ └── repeat-element@1.1.2 </tspan>
<tspan x="10" y="778">  │ │ │ ├─┬ expand-brackets@0.1.5 </tspan>
<tspan x="10" y="794">  │ │ │ │ └── is-posix-bracket@0.1.1 </tspan>
<tspan x="10" y="810">  │ │ │ ├── extglob@0.3.2 </tspan>
<tspan x="10" y="826">  │ │ │ ├── filename-regex@2.0.0 </tspan>
<tspan x="10" y="842">  │ │ │ ├─┬ kind-of@3.1.0 </tspan>
<tspan x="10" y="858">  │ │ │ │ └── is-buffer@1.1.5 </tspan>
<tspan x="10" y="874">  │ │ │ ├─┬ normalize-path@2.1.1 </tspan>
<tspan x="10" y="890">  │ │ │ │ └── remove-trailing-separator@1.0.1 </tspan>
<tspan x="10" y="906">  │ │ │ ├─┬ object.omit@2.0.1 </tspan>
<tspan x="10" y="922">  │ │ │ │ ├─┬ for-own@0.1.5 </tspan>
<tspan x="10" y="938">  │ │ │ │ │ └── for-in@1.0.2 </tspan>
<tspan x="10" y="954">  │ │ │ │ └── is-extendable@0.1.1 </tspan>
<tspan x="10" y="970">  │ │ │ ├─┬ parse-glob@3.0.4 </tspan>
<tspan x="10" y="986">  │ │ │ │ ├─┬ glob-base@0.3.0 </tspan>
<tspan x="10" y="1002">  │ │ │ │ │ └── glob-parent@2.0.0 </tspan>
<tspan x="10" y="1018">  │ │ │ │ └── is-dotfile@1.0.2 </tspan>
<tspan x="10" y="1034">  │ │ │ └─┬ regex-cache@0.4.3 </tspan>
<tspan x="10" y="1050">  │ │ │   ├── is-equal-shallow@0.1.3 </tspan>
<tspan x="10" y="1066">  │ │ │   └── is-primitive@2.0.0 </tspan>
<tspan x="10" y="1082">  │ │ └─┬ resolve-dir@0.1.1 </tspan>
<tspan x="10" y="1098">  │ │   ├─┬ expand-tilde@1.2.2 </tspan>
<tspan x="10" y="1114">  │ │   │ └── os-homedir@1.0.2 </tspan>
<tspan x="10" y="1130">  │ │   └─┬ global-modules@0.2.3 </tspan>
<tspan x="10" y="1146">  │ │     ├─┬ global-prefix@0.1.5 </tspan>
<tspan x="10" y="1162">  │ │     │ ├─┬ homedir-polyfill@1.0.1 </tspan>
<tspan x="10" y="1178">  │ │     │ │ └── parse-passwd@1.0.0 </tspan>
<tspan x="10" y="1194">  │ │     │ ├── ini@1.3.4 </tspan>
<tspan x="10" y="1210">  │ │     │ └── is-windows@0.2.0 </tspan>
<tspan x="10" y="1226">  │ │     └── is-windows@0.2.0 </tspan>
<tspan x="10" y="1242">  │ └── merge@1.2.0 </tspan>
<tspan x="10" y="1258">  ├─┬ joi@9.0.0-0 </tspan>
<tspan x="10" y="1274">  │ ├── hoek@4.1.1 </tspan>
<tspan x="10" y="1290">  │ ├── isemail@2.2.1 </tspan>
<tspan x="10" y="1306">  │ ├── items@2.1.1 </tspan>
<tspan x="10" y="1322">  │ ├── moment@2.18.1 </tspan>
<tspan x="10" y="1338">  │ └── topo@2.0.2 </tspan>
<tspan x="10" y="1354">  ├── lodash@4.11.1 </tspan>
<tspan x="10" y="1370">  ├─┬ npmlog@2.0.3 </tspan>
<tspan x="10" y="1386">  │ ├── ansi@0.3.1 </tspan>
<tspan x="10" y="1402">  │ ├─┬ are-we-there-yet@1.1.2 </tspan>
<tspan x="10" y="1418">  │ │ ├── delegates@1.0.0 </tspan>
<tspan x="10" y="1434">  │ │ └─┬ readable-stream@2.2.9 </tspan>
<tspan x="10" y="1450">  │ │   ├── buffer-shims@1.0.0 </tspan>
<tspan x="10" y="1466">  │ │   ├── core-util-is@1.0.2 </tspan>
<tspan x="10" y="1482">  │ │   ├── isarray@1.0.0 </tspan>
<tspan x="10" y="1498">  │ │   ├── process-nextick-args@1.0.7 </tspan>
<tspan x="10" y="1514">  │ │   ├── string_decoder@1.0.0 </tspan>
<tspan x="10" y="1530">  │ │   └── util-deprecate@1.0.2 </tspan>
<tspan x="10" y="1546">  │ └─┬ gauge@1.2.7 </tspan>
<tspan x="10" y="1562">  │   ├── has-unicode@2.0.1 </tspan>
<tspan x="10" y="1578">  │   ├── lodash.pad@4.5.1 </tspan>
<tspan x="10" y="1594">  │   ├── lodash.padend@4.6.1 </tspan>
<tspan x="10" y="1610">  │   └── lodash.padstart@4.6.1 </tspan>
<tspan x="10" y="1626">  ├── semver@5.3.0 </tspan>
<tspan x="10" y="1642">  ├─┬ shelljs@0.7.0 </tspan>
<tspan x="10" y="1658">  │ ├─┬ glob@7.1.1 </tspan>
<tspan x="10" y="1674">  │ │ ├── fs.realpath@1.0.0 </tspan>
<tspan x="10" y="1690">  │ │ ├─┬ inflight@1.0.6 </tspan>
<tspan x="10" y="1706">  │ │ │ └── wrappy@1.0.2 </tspan>
<tspan x="10" y="1722">  │ │ ├── inherits@2.0.3 </tspan>
<tspan x="10" y="1738">  │ │ ├─┬ minimatch@3.0.3 </tspan>
<tspan x="10" y="1754">  │ │ │ └─┬ brace-expansion@1.1.7 </tspan>
<tspan x="10" y="1770">  │ │ │   ├── balanced-match@0.4.2 </tspan>
<tspan x="10" y="1786">  │ │ │   └── concat-map@0.0.1 </tspan>
<tspan x="10" y="1802">  │ │ ├── once@1.4.0 </tspan>
<tspan x="10" y="1818">  │ │ └── path-is-absolute@1.0.1 </tspan>
<tspan x="10" y="1834">  │ ├── interpret@1.0.3 </tspan>
<tspan x="10" y="1850">  │ └─┬ rechoir@0.6.2 </tspan>
<tspan x="10" y="1866">  │   └─┬ resolve@1.3.2 </tspan>
<tspan x="10" y="1882">  │     └── path-parse@1.0.5 </tspan>
<tspan x="10" y="1898">  └─┬ yargs@4.7.1 </tspan>
<tspan x="10" y="1914">    ├── camelcase@3.0.0 </tspan>
<tspan x="10" y="1930">    ├─┬ cliui@3.2.0 </tspan>
<tspan x="10" y="1946">    │ └── wrap-ansi@2.1.0 </tspan>
<tspan x="10" y="1962">    ├── decamelize@1.2.0 </tspan>
<tspan x="10" y="1978">    ├── lodash.assign@4.2.0 </tspan>
<tspan x="10" y="1994">    ├─┬ os-locale@1.4.0 </tspan>
<tspan x="10" y="2010">    │ └─┬ lcid@1.0.0 </tspan>
<tspan x="10" y="2026">    │   └── invert-kv@1.0.0 </tspan>
<tspan x="10" y="2042">    ├─┬ pkg-conf@1.1.3 </tspan>
<tspan x="10" y="2058">    │ ├─┬ find-up@1.1.2 </tspan>
<tspan x="10" y="2074">    │ │ ├── path-exists@2.1.0 </tspan>
<tspan x="10" y="2090">    │ │ └─┬ pinkie-promise@2.0.1 </tspan>
<tspan x="10" y="2106">    │ │   └── pinkie@2.0.4 </tspan>
<tspan x="10" y="2122">    │ ├─┬ load-json-file@1.1.0 </tspan>
<tspan x="10" y="2138">    │ │ ├── graceful-fs@4.1.11 </tspan>
<tspan x="10" y="2154">    │ │ ├─┬ parse-json@2.2.0 </tspan>
<tspan x="10" y="2170">    │ │ │ └─┬ error-ex@1.3.1 </tspan>
<tspan x="10" y="2186">    │ │ │   └── is-arrayish@0.2.1 </tspan>
<tspan x="10" y="2202">    │ │ ├── pify@2.3.0 </tspan>
<tspan x="10" y="2218">    │ │ └─┬ strip-bom@2.0.0 </tspan>
<tspan x="10" y="2234">    │ │   └── is-utf8@0.2.1 </tspan>
<tspan x="10" y="2250">    │ ├── object-assign@4.1.1 </tspan>
<tspan x="10" y="2266">    │ └── symbol@0.2.3 </tspan>
<tspan x="10" y="2282">    ├─┬ read-pkg-up@1.0.1 </tspan>
<tspan x="10" y="2298">    │ └─┬ read-pkg@1.1.0 </tspan>
<tspan x="10" y="2314">    │   ├─┬ normalize-package-data@2.3.6 </tspan>
<tspan x="10" y="2330">    │   │ ├── hosted-git-info@2.4.2 </tspan>
<tspan x="10" y="2346">    │   │ ├─┬ is-builtin-module@1.0.0 </tspan>
<tspan x="10" y="2362">    │   │ │ └── builtin-modules@1.1.1 </tspan>
<tspan x="10" y="2378">    │   │ └─┬ validate-npm-package-license@3.0.1 </tspan>
<tspan x="10" y="2394">    │   │   ├─┬ spdx-correct@1.0.2 </tspan>
<tspan x="10" y="2410">    │   │   │ └── spdx-license-ids@1.2.2 </tspan>
<tspan x="10" y="2426">    │   │   └── spdx-expression-parse@1.0.4 </tspan>
<tspan x="10" y="2442">    │   └── path-type@1.1.0 </tspan>
<tspan x="10" y="2458">    ├── require-main-filename@1.0.1 </tspan>
<tspan x="10" y="2474">    ├── set-blocking@1.0.0 </tspan>
<tspan x="10" y="2490">    ├─┬ string-width@1.0.2 </tspan>
<tspan x="10" y="2506">    │ ├── code-point-at@1.1.0 </tspan>
<tspan x="10" y="2522">    │ └─┬ is-fullwidth-code-point@1.0.0 </tspan>
<tspan x="10" y="2538">    │   └── number-is-nan@1.0.1 </tspan>
<tspan x="10" y="2554">    ├── window-size@0.2.0 </tspan>
<tspan x="10" y="2570">    ├── y18n@3.2.1 </tspan>
<tspan x="10" y="2586">    └── yargs-parser@2.4.1</tspan>
</text>
</svg>
